<?xml version="1.0" standalone="no"?>
<!DOCTYPE svg PUBLIC "-//W3C//DTD SVG 20010904//EN"
 "http://www.w3.org/TR/2001/REC-SVG-20010904/DTD/svg10.dtd">
<svg version="1.0" xmlns="http://www.w3.org/2000/svg"
 width="1200.000000pt" height="1200.000000pt" viewBox="0 0 1200.000000 1200.000000"
 preserveAspectRatio="xMidYMid meet">
<metadata>
Created by potrace 1.14, written by Peter Selinger 2001-2017
</metadata>
<g transform="translate(0.000000,1200.000000) scale(0.100000,-0.100000)"
fill="#000000" stroke="none">
<path d="M5715 8929 c-106 -12 -259 -51 -337 -85 -154 -68 -266 -150 -590
-431 -106 -92 -222 -193 -258 -223 -36 -30 -67 -57 -70 -60 -20 -22 -457 -372
-541 -433 -13 -10 -68 -51 -122 -91 -190 -142 -361 -208 -622 -241 -57 -8
-293 -16 -555 -20 -162 -2 -306 -6 -320 -9 -14 -2 -50 -7 -80 -10 -274 -28
-525 -142 -701 -320 -42 -43 -42 -47 11 -94 l36 -30 49 50 c60 60 187 146 270
183 111 49 249 82 415 100 25 3 185 7 355 10 315 5 454 10 535 21 239 31 418
90 573 190 157 102 665 502 932 735 17 14 89 77 160 140 72 63 157 136 190
164 33 27 62 52 65 55 13 16 133 102 192 139 113 71 259 120 413 138 127 15
637 8 925 -12 25 -1 106 -6 180 -10 74 -3 151 -8 170 -10 19 -2 91 -6 160 -10
69 -3 152 -8 185 -10 33 -2 110 -7 170 -10 61 -3 146 -8 190 -10 214 -12 354
-19 600 -30 66 -3 163 -7 215 -10 100 -5 286 -12 510 -20 223 -8 384 -16 400
-20 8 -2 33 -6 55 -10 179 -26 454 -142 590 -247 6 -5 35 -27 65 -50 66 -51
191 -174 247 -243 147 -183 243 -488 289 -920 3 -27 7 -63 9 -80 2 -16 7 -77
10 -135 4 -58 9 -121 10 -140 17 -165 24 -1346 12 -1902 l-7 -338 60 0 60 0 1
63 c0 34 3 141 6 237 13 420 5 1740 -12 1970 -2 30 -7 91 -10 135 -37 529
-144 928 -308 1151 -62 84 -219 242 -306 308 -173 133 -384 235 -587 285 -157
39 -193 43 -579 56 -300 11 -398 15 -515 20 -63 3 -164 7 -225 10 -60 3 -150
7 -200 10 -49 3 -135 8 -190 10 -121 6 -262 13 -370 20 -304 18 -308 18 -525
30 -63 3 -140 7 -170 10 -30 2 -111 7 -180 11 -69 4 -147 8 -175 10 -125 9
-688 11 -760 3z"/>
<path d="M8869 6665 c-2 -2 -36 -5 -76 -6 -39 -1 -107 -8 -152 -15 -664 -106
-1099 -666 -1115 -1438 -12 -553 200 -1030 578 -1298 136 -97 361 -190 516
-213 25 -4 59 -9 75 -12 122 -22 452 1 578 40 26 8 47 13 47 10 0 -3 6 -1 13
4 6 6 30 16 52 23 64 20 219 105 298 163 154 114 305 298 390 477 81 171 119
306 155 552 10 66 8 400 -3 468 -41 266 -122 489 -244 675 -62 95 -72 107
-172 206 -154 155 -338 259 -559 318 -94 25 -123 29 -235 36 -49 3 -102 8
-116 10 -15 2 -28 2 -30 0z m226 -170 c199 -33 426 -150 581 -302 322 -314
462 -866 348 -1380 -37 -166 -49 -203 -113 -338 -161 -337 -452 -564 -810
-631 -84 -16 -325 -22 -381 -9 -14 3 -43 7 -64 10 -61 8 -166 42 -253 81 -230
105 -426 298 -547 541 -66 131 -127 344 -144 498 -9 81 -8 336 1 410 74 604
436 1024 967 1119 76 14 334 15 415 1z"/>
<path d="M1453 6584 c-7 -18 3 -1922 11 -1974 11 -78 14 -93 29 -160 33 -134
93 -283 153 -377 135 -211 391 -356 688 -390 79 -9 312 -9 396 1 471 53 777
333 866 790 20 102 25 142 31 216 4 47 7 495 8 995 l0 910 -87 1 -88 1 -1
-906 c-1 -498 -1 -909 -1 -912 1 -9 -16 -168 -23 -214 -24 -160 -87 -328 -159
-425 -178 -238 -481 -343 -891 -307 -223 19 -433 129 -552 290 -107 144 -183
370 -199 592 -1 22 -3 454 -3 961 l-1 920 -86 0 c-59 0 -87 -3 -91 -12z"/>
<path d="M4535 6592 c-3 -3 -5 -646 -5 -1429 l0 -1423 90 0 90 0 2 1321 3
1322 88 -129 c48 -71 139 -203 201 -294 63 -91 159 -230 213 -310 54 -80 100
-147 104 -150 3 -3 56 -79 118 -170 184 -271 269 -394 278 -405 4 -5 20 -28
35 -50 14 -22 98 -143 185 -270 87 -126 176 -256 198 -289 22 -32 47 -68 55
-80 8 -12 88 -129 178 -259 l163 -237 105 0 104 0 -2 1428 -3 1427 -85 0 -85
0 0 -1308 c0 -719 -3 -1307 -7 -1307 -3 0 -39 48 -79 108 -40 59 -87 127 -104
152 -56 80 -120 172 -200 290 -242 351 -888 1292 -915 1330 -17 25 -52 75 -78
112 -26 37 -133 192 -239 345 l-191 279 -106 0 c-58 0 -108 -2 -111 -4z"/>
</g>
</svg>
